<svg width="400" height="300" viewBox="0 0 400 300" xmlns="http://www.w3.org/2000/svg">
  <defs>
    <linearGradient id="grad6" x1="0%" y1="0%" x2="100%" y2="100%">
      <stop offset="0%" style="stop-color:#f0fdf4;stop-opacity:1" />
      <stop offset="100%" style="stop-color:#dcfce7;stop-opacity:1" />
    </linearGradient>
  </defs>

  <!-- Background -->
  <rect width="400" height="300" fill="url(#grad6)"/>
  <rect x="0" y="0" width="400" height="300" fill="none" stroke="#16a34a" stroke-width="1"/>

  <!-- Academic header -->
  <rect x="30" y="30" width="340" height="55" fill="#ffffff" rx="4" stroke="#16a34a" stroke-width="1"/>
  <circle cx="60" cy="57" r="14" fill="#16a34a"/>
  <rect x="90" y="50" width="110" height="7" fill="#1f2937" rx="3"/>
  <rect x="90" y="62" width="85" height="5" fill="#16a34a" rx="2"/>

  <!-- Academic content with formal structure -->
  <rect x="30" y="105" width="155" height="70" fill="#ffffff" rx="3" stroke="#d1fae5" stroke-width="1"/>
  <rect x="40" y="115" width="55" height="7" fill="#1f2937" rx="3"/>
  <rect x="40" y="130" width="115" height="5" fill="#6b7280" rx="2"/>
  <rect x="40" y="145" width="95" height="5" fill="#6b7280" rx="2"/>
  <rect x="40" y="160" width="75" height="5" fill="#6b7280" rx="2"/>

  <rect x="215" y="105" width="155" height="70" fill="#ffffff" rx="3" stroke="#d1fae5" stroke-width="1"/>
  <rect x="225" y="115" width="60" height="7" fill="#1f2937" rx="3"/>
  <rect x="225" y="130" width="105" height="5" fill="#6b7280" rx="2"/>
  <rect x="225" y="145" width="85" height="5" fill="#6b7280" rx="2"/>
  <rect x="225" y="160" width="95" height="5" fill="#6b7280" rx="2"/>

  <!-- Academic footer with publications style -->
  <rect x="30" y="195" width="340" height="75" fill="#ffffff" rx="3" stroke="#d1fae5" stroke-width="1"/>
  <rect x="40" y="210" width="70" height="7" fill="#1f2937" rx="3"/>
  <rect x="40" y="225" width="280" height="5" fill="#6b7280" rx="2"/>
  <rect x="40" y="240" width="250" height="5" fill="#6b7280" rx="2"/>
  <rect x="40" y="255" width="220" height="5" fill="#6b7280" rx="2"/>
</svg>