<svg width="400" height="300" viewBox="0 0 400 300" xmlns="http://www.w3.org/2000/svg">
  <defs>
    <linearGradient id="grad1" x1="0%" y1="0%" x2="100%" y2="100%">
      <stop offset="0%" style="stop-color:#ffffff;stop-opacity:1" />
      <stop offset="100%" style="stop-color:#f8f9fa;stop-opacity:1" />
    </linearGradient>
  </defs>

  <!-- Background -->
  <rect width="400" height="300" fill="url(#grad1)"/>
  <rect x="0" y="0" width="400" height="300" fill="none" stroke="#e5e7eb" stroke-width="1"/>

  <!-- Header -->
  <rect x="30" y="30" width="340" height="60" fill="#1f2937" rx="4"/>
  <circle cx="60" cy="60" r="15" fill="#ffffff"/>
  <rect x="90" y="50" width="120" height="8" fill="#ffffff" rx="4"/>
  <rect x="90" y="65" width="80" height="6" fill="#ffffff" opacity="0.7" rx="3"/>

  <!-- Content sections -->
  <rect x="30" y="110" width="160" height="8" fill="#374151" rx="4"/>
  <rect x="30" y="130" width="120" height="6" fill="#6b7280" rx="3"/>
  <rect x="30" y="150" width="140" height="6" fill="#6b7280" rx="3"/>
  <rect x="30" y="170" width="100" height="6" fill="#6b7280" rx="3"/>

  <rect x="220" y="110" width="150" height="8" fill="#374151" rx="4"/>
  <rect x="220" y="130" width="100" height="6" fill="#6b7280" rx="3"/>
  <rect x="220" y="150" width="130" height="6" fill="#6b7280" rx="3"/>
  <rect x="220" y="170" width="90" height="6" fill="#6b7280" rx="3"/>
  <rect x="220" y="190" width="110" height="6" fill="#6b7280" rx="3"/>

  <!-- Bottom section -->
  <rect x="30" y="230" width="80" height="8" fill="#374151" rx="4"/>
  <rect x="30" y="250" width="200" height="6" fill="#6b7280" rx="3"/>
  <rect x="30" y="270" width="180" height="6" fill="#6b7280" rx="3"/>
</svg>