<svg width="400" height="300" viewBox="0 0 400 300" xmlns="http://www.w3.org/2000/svg">
  <defs>
    <linearGradient id="grad4" x1="0%" y1="0%" x2="100%" y2="100%">
      <stop offset="0%" style="stop-color:#fef7ed;stop-opacity:1" />
      <stop offset="100%" style="stop-color:#fffbeb;stop-opacity:1" />
    </linearGradient>
  </defs>

  <!-- Background -->
  <rect width="400" height="300" fill="url(#grad4)"/>
  <rect x="0" y="0" width="400" height="300" fill="none" stroke="#d97706" stroke-width="2"/>

  <!-- Executive header -->
  <rect x="25" y="25" width="350" height="65" fill="#ffffff" rx="6" stroke="#92400e" stroke-width="2"/>
  <rect x="25" y="25" width="350" height="20" fill="#92400e" rx="6"/>
  <circle cx="55" cy="60" r="16" fill="#92400e"/>
  <rect x="85" y="52" width="130" height="8" fill="#1f2937" rx="4"/>
  <rect x="85" y="65" width="90" height="6" fill="#92400e" rx="3"/>

  <!-- Executive content -->
  <rect x="25" y="110" width="165" height="85" fill="#ffffff" rx="4" stroke="#e5e7eb" stroke-width="1"/>
  <rect x="35" y="120" width="70" height="8" fill="#1f2937" rx="4"/>
  <rect x="35" y="140" width="120" height="6" fill="#6b7280" rx="3"/>
  <rect x="35" y="160" width="100" height="6" fill="#6b7280" rx="3"/>
  <rect x="35" y="180" width="80" height="6" fill="#6b7280" rx="3"/>

  <rect x="210" y="110" width="165" height="85" fill="#ffffff" rx="4" stroke="#e5e7eb" stroke-width="1"/>
  <rect x="220" y="120" width="75" height="8" fill="#1f2937" rx="4"/>
  <rect x="220" y="140" width="110" height="6" fill="#6b7280" rx="3"/>
  <rect x="220" y="160" width="95" height="6" fill="#6b7280" rx="3"/>
  <rect x="220" y="180" width="85" height="6" fill="#6b7280" rx="3"/>

  <!-- Executive footer -->
  <rect x="25" y="220" width="350" height="50" fill="#ffffff" rx="4" stroke="#e5e7eb" stroke-width="1"/>
  <rect x="35" y="235" width="60" height="8" fill="#1f2937" rx="4"/>
  <rect x="35" y="250" width="200" height="6" fill="#6b7280" rx="3"/>
</svg>