<svg width="400" height="300" viewBox="0 0 400 300" xmlns="http://www.w3.org/2000/svg">
  <!-- Clean white background -->
  <rect width="400" height="300" fill="#ffffff"/>
  <rect x="0" y="0" width="400" height="300" fill="none" stroke="#f1f5f9" stroke-width="1"/>

  <!-- Minimalist header -->
  <rect x="40" y="40" width="320" height="50" fill="none"/>
  <circle cx="70" cy="65" r="12" fill="#e2e8f0"/>
  <rect x="100" y="58" width="100" height="6" fill="#1e293b" rx="3"/>
  <rect x="100" y="70" width="70" height="4" fill="#94a3b8" rx="2"/>

  <!-- Clean sections with plenty of whitespace -->
  <rect x="40" y="120" width="320" height="6" fill="#1e293b" rx="3"/>
  <rect x="40" y="140" width="250" height="4" fill="#64748b" rx="2"/>
  <rect x="40" y="160" width="200" height="4" fill="#64748b" rx="2"/>
  <rect x="40" y="180" width="180" height="4" fill="#64748b" rx="2"/>

  <rect x="40" y="210" width="320" height="6" fill="#1e293b" rx="3"/>
  <rect x="40" y="230" width="220" height="4" fill="#64748b" rx="2"/>
  <rect x="40" y="250" width="190" height="4" fill="#64748b" rx="2"/>
  <rect x="40" y="270" width="160" height="4" fill="#64748b" rx="2"/>
</svg>