<svg width="400" height="300" viewBox="0 0 400 300" xmlns="http://www.w3.org/2000/svg">
  <defs>
    <linearGradient id="grad2" x1="0%" y1="0%" x2="100%" y2="100%">
      <stop offset="0%" style="stop-color:#f0f9ff;stop-opacity:1" />
      <stop offset="100%" style="stop-color:#e0f2fe;stop-opacity:1" />
    </linearGradient>
  </defs>

  <!-- Background -->
  <rect width="400" height="300" fill="url(#grad2)"/>
  <rect x="0" y="0" width="400" height="300" fill="none" stroke="#0ea5e9" stroke-width="2"/>

  <!-- Modern header with accent -->
  <rect x="20" y="20" width="360" height="70" fill="#ffffff" rx="8" stroke="#0ea5e9" stroke-width="3"/>
  <rect x="20" y="20" width="360" height="15" fill="#0ea5e9" rx="8"/>
  <circle cx="50" cy="55" r="18" fill="#0ea5e9"/>
  <rect x="85" y="45" width="140" height="10" fill="#1e293b" rx="5"/>
  <rect x="85" y="60" width="100" height="8" fill="#64748b" rx="4"/>

  <!-- Creative sections with modern styling -->
  <rect x="20" y="110" width="170" height="80" fill="#ffffff" rx="6" stroke="#e2e8f0" stroke-width="1"/>
  <rect x="30" y="120" width="60" height="8" fill="#1e293b" rx="4"/>
  <rect x="30" y="140" width="130" height="6" fill="#64748b" rx="3"/>
  <rect x="30" y="160" width="100" height="6" fill="#64748b" rx="3"/>
  <rect x="30" y="180" width="80" height="6" fill="#64748b" rx="3"/>

  <rect x="210" y="110" width="170" height="80" fill="#ffffff" rx="6" stroke="#e2e8f0" stroke-width="1"/>
  <rect x="220" y="120" width="70" height="8" fill="#1e293b" rx="4"/>
  <rect x="220" y="140" width="120" height="6" fill="#64748b" rx="3"/>
  <rect x="220" y="160" width="90" height="6" fill="#64748b" rx="3"/>
  <rect x="220" y="180" width="110" height="6" fill="#64748b" rx="3"/>

  <!-- Modern accent elements -->
  <circle cx="350" cy="250" r="30" fill="#0ea5e9" opacity="0.1"/>
  <circle cx="320" cy="220" r="20" fill="#0ea5e9" opacity="0.2"/>
</svg>