<svg width="400" height="300" viewBox="0 0 400 300" xmlns="http://www.w3.org/2000/svg">
  <!-- Dark tech background -->
  <rect width="400" height="300" fill="#0f172a"/>
  <rect x="0" y="0" width="400" height="300" fill="none" stroke="#06b6d4" stroke-width="2"/>

  <!-- Tech header -->
  <rect x="20" y="20" width="360" height="60" fill="#1e293b" rx="8"/>
  <rect x="20" y="20" width="360" height="15" fill="#06b6d4" rx="8"/>
  <circle cx="50" cy="55" r="15" fill="#06b6d4"/>
  <rect x="80" y="48" width="120" height="8" fill="#f1f5f9" rx="4"/>
  <rect x="80" y="62" width="80" height="6" fill="#64748b" rx="3"/>

  <!-- Tech sections -->
  <rect x="20" y="100" width="175" height="75" fill="#1e293b" rx="6" stroke="#334155" stroke-width="1"/>
  <rect x="30" y="110" width="65" height="8" fill="#f1f5f9" rx="4"/>
  <rect x="30" y="130" width="120" height="6" fill="#64748b" rx="3"/>
  <rect x="30" y="150" width="90" height="6" fill="#64748b" rx="3"/>
  <rect x="30" y="170" width="70" height="6" fill="#64748b" rx="3"/>

  <rect x="205" y="100" width="175" height="75" fill="#1e293b" rx="6" stroke="#334155" stroke-width="1"/>
  <rect x="215" y="110" width="70" height="8" fill="#f1f5f9" rx="4"/>
  <rect x="215" y="130" width="110" height="6" fill="#64748b" rx="3"/>
  <rect x="215" y="150" width="85" height="6" fill="#64748b" rx="3"/>
  <rect x="215" y="170" width="95" height="6" fill="#64748b" rx="3"/>

  <!-- Tech accent elements -->
  <circle cx="350" cy="250" r="25" fill="#06b6d4" opacity="0.3"/>
  <circle cx="320" cy="220" r="15" fill="#06b6d4" opacity="0.5"/>
  <rect x="280" y="240" width="40" height="3" fill="#06b6d4" opacity="0.6" rx="1"/>
  <rect x="290" y="250" width="30" height="3" fill="#06b6d4" opacity="0.4" rx="1"/>
</svg>